<svg width="83" height="28" viewBox="0 0 83 28" fill="none" xmlns="http://www.w3.org/2000/svg">
<path d="M13.92 19.064C13.92 19.56 13.888 20.008 13.824 20.408H3.72C3.8 21.464 4.192 22.312 4.896 22.952C5.6 23.592 6.464 23.912 7.488 23.912C8.96 23.912 10 23.296 10.608 22.064H13.56C13.16 23.28 12.432 24.28 11.376 25.064C10.336 25.832 9.04 26.216 7.488 26.216C6.224 26.216 5.088 25.936 4.08 25.376C3.088 24.8 2.304 24 1.728 22.976C1.168 21.936 0.888 20.736 0.888 19.376C0.888 18.016 1.16 16.824 1.704 15.8C2.264 14.76 3.04 13.96 4.032 13.4C5.04 12.84 6.192 12.56 7.488 12.56C8.736 12.56 9.848 12.832 10.824 13.376C11.8 13.92 12.56 14.688 13.104 15.68C13.648 16.656 13.92 17.784 13.92 19.064ZM11.064 18.2C11.048 17.192 10.688 16.384 9.984 15.776C9.28 15.168 8.408 14.864 7.368 14.864C6.424 14.864 5.616 15.168 4.944 15.776C4.272 16.368 3.872 17.176 3.744 18.2H11.064ZM28.2765 14.288C28.2765 15.136 28.0765 15.936 27.6765 16.688C27.2765 17.44 26.6365 18.056 25.7565 18.536C24.8765 19 23.7485 19.232 22.3725 19.232H19.3485V26H16.6125V9.32H22.3725C23.6525 9.32 24.7325 9.544 25.6125 9.992C26.5085 10.424 27.1725 11.016 27.6045 11.768C28.0525 12.52 28.2765 13.36 28.2765 14.288ZM22.3725 17C23.4125 17 24.1885 16.768 24.7005 16.304C25.2125 15.824 25.4685 15.152 25.4685 14.288C25.4685 12.464 24.4365 11.552 22.3725 11.552H19.3485V17H22.3725ZM43.0059 19.064C43.0059 19.56 42.9739 20.008 42.9099 20.408H32.8059C32.8859 21.464 33.2779 22.312 33.9819 22.952C34.6859 23.592 35.5499 23.912 36.5739 23.912C38.0459 23.912 39.0859 23.296 39.6939 22.064H42.6459C42.2459 23.28 41.5179 24.28 40.4619 25.064C39.4219 25.832 38.1259 26.216 36.5739 26.216C35.3099 26.216 34.1739 25.936 33.1659 25.376C32.1739 24.8 31.3899 24 30.8139 22.976C30.2539 21.936 29.9739 20.736 29.9739 19.376C29.9739 18.016 30.2459 16.824 30.7899 15.8C31.3499 14.76 32.1259 13.96 33.1179 13.4C34.1259 12.84 35.2779 12.56 36.5739 12.56C37.8219 12.56 38.9339 12.832 39.9099 13.376C40.8859 13.92 41.6459 14.688 42.1899 15.68C42.7339 16.656 43.0059 17.784 43.0059 19.064ZM40.1499 18.2C40.1339 17.192 39.7739 16.384 39.0699 15.776C38.3659 15.168 37.4939 14.864 36.4539 14.864C35.5099 14.864 34.7019 15.168 34.0299 15.776C33.3579 16.368 32.9579 17.176 32.8299 18.2H40.1499ZM44.7864 19.328C44.7864 18 45.0584 16.824 45.6024 15.8C46.1624 14.776 46.9144 13.984 47.8584 13.424C48.8184 12.848 49.8824 12.56 51.0504 12.56C51.9144 12.56 52.7624 12.752 53.5944 13.136C54.4424 13.504 55.1144 14 55.6104 14.624V8.24H58.3704V26H55.6104V24.008C55.1624 24.648 54.5384 25.176 53.7384 25.592C52.9544 26.008 52.0504 26.216 51.0264 26.216C49.8744 26.216 48.8184 25.928 47.8584 25.352C46.9144 24.76 46.1624 23.944 45.6024 22.904C45.0584 21.848 44.7864 20.656 44.7864 19.328ZM55.6104 19.376C55.6104 18.464 55.4184 17.672 55.0344 17C54.6664 16.328 54.1784 15.816 53.5704 15.464C52.9624 15.112 52.3064 14.936 51.6024 14.936C50.8984 14.936 50.2424 15.112 49.6344 15.464C49.0264 15.8 48.5304 16.304 48.1464 16.976C47.7784 17.632 47.5944 18.416 47.5944 19.328C47.5944 20.24 47.7784 21.04 48.1464 21.728C48.5304 22.416 49.0264 22.944 49.6344 23.312C50.2584 23.664 50.9144 23.84 51.6024 23.84C52.3064 23.84 52.9624 23.664 53.5704 23.312C54.1784 22.96 54.6664 22.448 55.0344 21.776C55.4184 21.088 55.6104 20.288 55.6104 19.376ZM61.0521 19.328C61.0521 18 61.3241 16.824 61.8681 15.8C62.4281 14.776 63.1801 13.984 64.1241 13.424C65.0841 12.848 66.1401 12.56 67.2921 12.56C68.3321 12.56 69.2361 12.768 70.0041 13.184C70.7881 13.584 71.4121 14.088 71.8761 14.696V12.776H74.6361V26H71.8761V24.032C71.4121 24.656 70.7801 25.176 69.9801 25.592C69.1801 26.008 68.2681 26.216 67.2441 26.216C66.1081 26.216 65.0681 25.928 64.1241 25.352C63.1801 24.76 62.4281 23.944 61.8681 22.904C61.3241 21.848 61.0521 20.656 61.0521 19.328ZM71.8761 19.376C71.8761 18.464 71.6841 17.672 71.3001 17C70.9321 16.328 70.4441 15.816 69.8361 15.464C69.2281 15.112 68.5721 14.936 67.8681 14.936C67.1641 14.936 66.5081 15.112 65.9001 15.464C65.2921 15.8 64.7961 16.304 64.4121 16.976C64.0441 17.632 63.8601 18.416 63.8601 19.328C63.8601 20.24 64.0441 21.04 64.4121 21.728C64.7961 22.416 65.2921 22.944 65.9001 23.312C66.5241 23.664 67.1801 23.84 67.8681 23.84C68.5721 23.84 69.2281 23.664 69.8361 23.312C70.4441 22.96 70.9321 22.448 71.3001 21.776C71.6841 21.088 71.8761 20.288 71.8761 19.376ZM80.9657 8.24V26H78.2297V8.24H80.9657Z" fill="black"/>
</svg>
